<svg width="65" height="65" viewBox="0 0 65 65" fill="none" xmlns="http://www.w3.org/2000/svg">
<path d="M10.9215 56.2548C9.4548 56.2548 8.19969 55.7331 7.15613 54.6895C6.11258 53.6459 5.58991 52.3899 5.58813 50.9215L5.58813 21.5882C5.58813 20.1215 6.1108 18.8664 7.15613 17.8228C8.20147 16.7793 9.45658 16.2566 10.9215 16.2548H21.5881V10.9215C21.5881 9.45483 22.1108 8.19972 23.1561 7.15617C24.2015 6.11261 25.4566 5.58994 26.9215 5.58817L37.5881 5.58817C39.0548 5.58817 40.3108 6.11083 41.3561 7.15617C42.4015 8.2015 42.9232 9.45661 42.9215 10.9215V16.2548L53.5881 16.2548C55.0548 16.2548 56.3108 16.7775 57.3561 17.8228C58.4015 18.8682 58.9232 20.1233 58.9215 21.5882V50.9215C58.9215 52.3882 58.3997 53.6442 57.3561 54.6895C56.3126 55.7348 55.0566 56.2566 53.5881 56.2548H10.9215ZM26.9215 16.2548H37.5881V10.9215L26.9215 10.9215V16.2548Z" fill="white"/>
</svg>
