<svg width="191" height="238" viewBox="0 0 191 238" fill="none" xmlns="http://www.w3.org/2000/svg">
<path fill-rule="evenodd" clip-rule="evenodd" d="M8.70685 0L95.5424 123.413L182.378 0V227.354H182.389C182.389 232.135 186.236 236.016 191 236.064V238H150.994V236.064C155.708 236.064 159.546 232.311 159.69 227.627V128.027L95.5424 216.904L31.3952 128.027V227.413C31.4267 232.196 35.3095 236.064 40.0947 236.064V238H0V236.064C4.80468 236.064 8.69967 232.165 8.69967 227.354H8.70685V0ZM95.5424 180.434L159.69 89.2662V71.0063L95.5424 159.884L31.3952 71.0063V89.2662L95.5424 180.434Z" fill="white"/>
</svg>
